<?xml version="1.0" encoding="UTF-8" standalone="no"?>
<svg
   width="197"
   height="226"
   fill="none"
   viewBox="0 0 197 226"
   version="1.1"
   id="svg1"
   sodipodi:docname="linux.svg"
   inkscape:version="1.4.3 (0d15f75042, 2025-12-25)"
   xmlns:inkscape="http://www.inkscape.org/namespaces/inkscape"
   xmlns:sodipodi="http://sodipodi.sourceforge.net/DTD/sodipodi-0.dtd"
   xmlns="http://www.w3.org/2000/svg"
   xmlns:svg="http://www.w3.org/2000/svg">
  <defs
     id="defs1" />
  <sodipodi:namedview
     id="namedview1"
     pagecolor="#ffffff"
     bordercolor="#000000"
     borderopacity="0.25"
     inkscape:showpageshadow="2"
     inkscape:pageopacity="0.0"
     inkscape:pagecheckerboard="0"
     inkscape:deskcolor="#d1d1d1"
     inkscape:zoom="2.6946903"
     inkscape:cx="98.341544"
     inkscape:cy="113"
     inkscape:window-width="1536"
     inkscape:window-height="828"
     inkscape:window-x="0"
     inkscape:window-y="0"
     inkscape:window-maximized="1"
     inkscape:current-layer="svg1" />
  <!-- SVG created with Arrow, by QuiverAI (https://quiver.ai) -->
  <path
     d="m97.44 2.51c-4.36-0.02-9.27 0.61-14.18 2.46-10.97 4.14-16.78 14.31-16.45 31.31 0.25 12.44 1.13 17.93 1.48 29.64 0.33 8.22 0.87 11.24-4.17 18.41-6.3 9.15-12.64 14.85-17.64 24.36-2.67 5.06-3.89 11.08-6.42 17.03-3.37 8.11-9.75 15.94-10.38 22.3-0.49 4.92-0.05 7.76-0.05 7.76-2.36 1.97-3.02 3.93-3.9 6.38-1.31 3.22-3.7 3.45-8.84 3.73-7.06 0.38-9.77 3.1-11.15 7.33-1.13 3.64-0.03 8.05 1.17 12.4 1.46 5.66-1.27 9.54-3.49 13.07-2.19 3.52-1.71 6.4 0.47 8.58 2.94 2.94 7.49 3.41 17.39 5.1 10.78 1.9 16.63 4.33 25.83 7.66 7.68 2.91 13 3.38 16.7 2.69 6.67-1.25 9.7-5.55 11.41-9.33 8.07-2.78 16.06-3.73 25.13-3.53 7.87 0.12 16.39 0.91 26.56 2.83 1.95 5.82 7.44 10.23 16.1 10.48 8.16 0.26 13.82-5.02 20.18-10.66 5.72-5.19 11.02-8.6 22.1-13.18 6.88-2.99 11.12-6.02 11.12-10.55 0-3.81-2.82-6.57-8.3-9.09-5.73-2.57-8.5-4.08-9.2-9.91-0.62-5.29-1.49-8.63-6.08-9.71 1.02-4.25 2.53-11.02 1.08-21.09-1.9-12.69-8.78-27.02-16.5-36.67-9.49-11.99-19.69-24.96-21.2-37.3-1.74-14.2-0.73-31.55-6.12-44.79-5.18-12.51-16.9-17.66-32.65-17.71zm9.72 32.85c6.82 0 9.49 6.38 9.49 12.35 0 4.77-1.14 8.7-1.94 11.24l-2.08-0.89c0.73-2.09 1.31-4.74 1.23-7.75-0.2-5.33-2.77-9.5-7.19-9.3-4.41 0.2-6.29 4.15-6.29 8.9 0 1.9 0.31 3.56 0.74 4.97l-3.41-1.44c-0.65-2.13-0.98-4.48-0.98-6.92 0-5.97 3.61-11.16 10.43-11.16zm-28.44 1.33c5.53 0 7.27 5.79 7.09 10.35-0.07 2.04-0.26 3.72-0.59 5.16l-1.54 0.86c0.14-1 0.17-2.13 0.05-3.42-0.47-4.22-2.31-6.63-4.81-6.43s-4.11 3.46-3.91 7.68c0.16 2.82 1.21 5.22 2.62 6.6l-2.41 1.46c-1.93-1.87-3.11-5.51-3.11-9.64 0-5.97 2.16-12.62 6.61-12.62zm10.15 16.22c3.25-0.08 7.3 0.93 11.28 2.49 4.86 1.95 9 3.51 13.63 5.41 3.38 1.36 4.94 3.61 4.23 5.8-0.7 2.31-3.1 3.67-5.77 5.46-7.18 4.69-15.18 10.62-22.93 10.42-5.7-0.15-10.19-4.78-15.55-10.27-0.98-1.08-2.14-3.08-0.83-5.21 1.59-2.72 6.29-6.94 9.56-9.35 1.93-1.41 3.67-4.68 6.38-4.75zm27.06 19.59c4 10.22 9.49 20.44 11.85 28.29 1.64 6.02 3.33 8.12 7.28 14.32 4.41 6.88 6.15 13.7 5.95 24.68-0.12 6.33-0.5 12.02-1.03 17.94-3.37-0.66-6.26-0.36-8.57 1.73-3.09 2.78-2.99 6.93-2.99 22.45v0.3c-8.11 11.48-19.41 17.8-34.9 17.8-9.54 0-16.49-1.59-21.51-6.68l-3.9-4.91c4.2-0.43 7.11-3.05 7.31-6.46 0.4-5.58-5.37-9.35-12.89-15.15-7.25-5.59-16.42-10.9-19.69-17.2-3.95-7.8 1.49-22.13 12.87-38.88 0.81-0.62 0.2 1.33-4.6 10.48-4.1 8.01-8.1 18.48-4.92 26.41 1.53 3.65 3.7 5.88 3.7 5.88-1.77-9.22 0.02-17.02 4.24-26.3 4.83-10.68 10.24-18.68 11.1-24.75 1.25-8.73 9-17.36 9.58-25.29 3.8 3.65 7.02 7.95 13.9 8.1 8.47 0.2 16-5.24 27.22-12.76zm25.7 35.12c5.36 1.51 9.56 7.44 11.92 14.52 2.76 8.73 1.76 19.05-1.54 26.91l-1.28 2.16c4.99-1.46 10.74 0.05 15.05 2.14 3.43 1.61 4.31 2.97 3.6 4.87l-0.47 0.62c-0.15-1.52-0.98-2.7-4.4-4.11-5.59-2.35-10.6-3.38-17.38-1.48l-2.81 0.35c1.79-1.22 4.61-3.36 5.56-6.39 2.51-7.27 3.11-14.97 0.3-24.3-2.07-6.88-6.21-11-8.92-12.9-1.08-0.81-1.18-1.42-0.85-2.29 0.15-0.1 0.5-0.25 1.22-0.1zm-3.7 53.78c2.36 0 4.2 1.21 4.68 4.64 0.9 6.07 4.5 8.33 9.81 7.95 6.38-0.37 10.13-3.92 13.76-8.15 2.94-3.43 6.47-3.63 7.27 2.44 0.91 6.88 1.21 9.44 8.06 13.14 5.56 3.04 9.8 4.2 9.7 7.73-0.15 4.14-4.39 5.99-11.4 9.27-11.8 5.34-15.7 8.92-22.42 14.99-6.12 5.64-9.67 6.3-14.48 6-7.8-0.48-13.29-4.98-13.49-11.51-0.1-4.14 2.09-12.76 2.19-20.03 0.1-6.68-0.1-16.95 0.1-19.89 0.35-4.56 2.09-6.58 6.22-6.58zm-101.4-4.41c4.66 0 7.6 2.21 12.1 8.23l19.2 27.71c4.81 7.08 6.32 10.73 5.01 17.2-1.51 6.88-7.6 9.69-14.03 8.48-7.08-1.3-13.6-4.85-23.09-7.69-7.75-2.45-12.91-3.21-22.6-5.11-6.09-1.21-8.09-3.5-6.98-7.34 1-3.23 4.5-5.94 4-13.02-0.35-4.75-3.01-9.84-0.4-13.39 2.17-3.14 6.21-2.94 9.34-3.24 4.96-0.37 7.82-0.94 9.89-4.89 1.46-3.09 2.16-6.94 7.56-6.94zm72.87-113.3c1.41 0 2.82 1.99 2.82 3.73v0.86l-1.21-0.6c-0.88-0.47-1.98-1.78-2.91-2.99-0.2-0.61 0.51-1 1.3-1zm-29.85 1.1c1.38 0 2.28 1.51 2.48 4.17v0.92l-1.79-1c-1-0.6-1.81-1.67-1.81-3.08 0-0.61 0.48-1.01 1.12-1.01zm12.46 9.82c0.76 0 1.44 0.2 1.94 0.7 0.98 0.98 0.5 2.08-0.4 2.18-0.81 0.1-1.52-0.5-2.32-1.11-1-0.8-0.93-1.7 0.48-1.72 0.1-0.03 0.2-0.05 0.3-0.05zm-4.08 0.1c0.81 0 1.01 0.8 0.3 1.61-0.9 1-1.71 1.47-2.52 1.57-0.7 0-1.17-0.47-0.97-1.17 0.2-1.01 1.61-2.01 3.19-2.01zm21.9 10.17c0.5 0 0.8 0.25 0.88 0.81 0.05 1-1.64 1.71-2.95 2.62-6.02 3.93-12.62 7.58-19.07 7.38-5.66-0.2-10.06-2.49-13.96-5.82-0.8-0.7-0.5-1.81 0.4-1.11 3 2.2 7.1 5.22 13.45 5.12 7.06-0.2 14.46-4.61 19.62-8.09 0.63-0.47 1.2-0.89 1.63-0.91z"
     fill="#000"
     id="path1"
     style="fill:#ffffff" />
</svg>
